<svg xmlns="http://www.w3.org/2000/svg" width="850" height="300" viewBox="0 0 850 300" role="img" aria-label="$ tail -n 30 contributions.log">
<style>
  text{font-family:'Fira Code','JetBrains Mono',Consolas,monospace}
  .t{fill:#A277FF;font-size:16px;font-weight:700}
  .l{fill:#C9D1D9;font-size:13px}
  .v{fill:#61FFCA;font-size:13px;font-weight:700}
  .m{fill:#8B949E;font-size:11px}
  .fade{opacity:0;animation:in .6s ease-out forwards}
  @keyframes in{from{opacity:0;transform:translateX(-6px)}to{opacity:1;transform:none}}
  @keyframes grow{from{transform:scaleX(0)}to{transform:scaleX(1)}}
  @keyframes draw{to{stroke-dashoffset:0}}
  @keyframes pulse{0%,100%{opacity:1}50%{opacity:.55}}
</style>
<rect x="0.5" y="0.5" width="849" height="299" rx="10" fill="#0D1117" stroke="#30363D"/>
<circle cx="20" cy="20" r="5" fill="#FF5F56"/><circle cx="36" cy="20" r="5" fill="#FFBD2E"/><circle cx="52" cy="20" r="5" fill="#27C93F"/>
<text x="70" y="25" class="t">$ tail -n 30 contributions.log</text>
<defs><linearGradient id="ag" x1="0" y1="0" x2="0" y2="1"><stop offset="0" stop-color="#A277FF" stop-opacity=".45"/><stop offset="1" stop-color="#302B63" stop-opacity="0"/></linearGradient></defs>
<line x1="50" y1="250" x2="800" y2="250" stroke="#30363D" stroke-dasharray="3 4"/>
<text x="40" y="254" text-anchor="end" class="m">0</text>
<line x1="50" y1="186.66666666666669" x2="800" y2="186.66666666666669" stroke="#30363D" stroke-dasharray="3 4"/>
<text x="40" y="190.66666666666669" text-anchor="end" class="m">1</text>
<line x1="50" y1="123.33333333333334" x2="800" y2="123.33333333333334" stroke="#30363D" stroke-dasharray="3 4"/>
<text x="40" y="127.33333333333334" text-anchor="end" class="m">2</text>
<line x1="50" y1="123.33333333333334" x2="800" y2="123.33333333333334" stroke="#30363D" stroke-dasharray="3 4"/>
<text x="40" y="127.33333333333334" text-anchor="end" class="m">2</text>
<line x1="50" y1="60" x2="800" y2="60" stroke="#30363D" stroke-dasharray="3 4"/>
<text x="40" y="64" text-anchor="end" class="m">3</text>
<path d="M50.0,250.0L75.0,250.0L100.0,250.0L125.0,250.0L150.0,250.0L175.0,186.7L200.0,250.0L225.0,250.0L250.0,250.0L275.0,250.0L300.0,250.0L325.0,250.0L350.0,250.0L375.0,250.0L400.0,250.0L425.0,250.0L450.0,250.0L475.0,250.0L500.0,60.0L525.0,123.3L550.0,250.0L575.0,250.0L600.0,250.0L625.0,250.0L650.0,250.0L675.0,250.0L700.0,250.0L725.0,250.0L750.0,250.0L775.0,186.7L800.0,186.7L800.0,250L50,250Z" fill="url(#ag)" class="fade" style="animation-delay:600ms"/>
<path d="M50.0,250.0L75.0,250.0L100.0,250.0L125.0,250.0L150.0,250.0L175.0,186.7L200.0,250.0L225.0,250.0L250.0,250.0L275.0,250.0L300.0,250.0L325.0,250.0L350.0,250.0L375.0,250.0L400.0,250.0L425.0,250.0L450.0,250.0L475.0,250.0L500.0,60.0L525.0,123.3L550.0,250.0L575.0,250.0L600.0,250.0L625.0,250.0L650.0,250.0L675.0,250.0L700.0,250.0L725.0,250.0L750.0,250.0L775.0,186.7L800.0,186.7" fill="none" stroke="#61FFCA" stroke-width="2.5" stroke-linejoin="round" pathLength="1" stroke-dasharray="1" stroke-dashoffset="1" style="animation:draw 1.6s ease-out forwards"/>
<circle cx="50.0" cy="250.0" r="3" fill="#FFFFFF" class="fade" style="animation-delay:800ms"><title>2026-08-26: 0</title></circle><circle cx="75.0" cy="250.0" r="3" fill="#FFFFFF" class="fade" style="animation-delay:825ms"><title>2026-08-27: 0</title></circle><circle cx="100.0" cy="250.0" r="3" fill="#FFFFFF" class="fade" style="animation-delay:850ms"><title>2026-08-28: 0</title></circle><circle cx="125.0" cy="250.0" r="3" fill="#FFFFFF" class="fade" style="animation-delay:875ms"><title>2026-08-29: 0</title></circle><circle cx="150.0" cy="250.0" r="3" fill="#FFFFFF" class="fade" style="animation-delay:900ms"><title>2026-08-30: 0</title></circle><circle cx="175.0" cy="186.7" r="3" fill="#FFFFFF" class="fade" style="animation-delay:925ms"><title>2026-08-31: 1</title></circle><circle cx="200.0" cy="250.0" r="3" fill="#FFFFFF" class="fade" style="animation-delay:950ms"><title>2026-09-01: 0</title></circle><circle cx="225.0" cy="250.0" r="3" fill="#FFFFFF" class="fade" style="animation-delay:975ms"><title>2026-09-02: 0</title></circle><circle cx="250.0" cy="250.0" r="3" fill="#FFFFFF" class="fade" style="animation-delay:1000ms"><title>2026-09-03: 0</title></circle><circle cx="275.0" cy="250.0" r="3" fill="#FFFFFF" class="fade" style="animation-delay:1025ms"><title>2026-09-04: 0</title></circle><circle cx="300.0" cy="250.0" r="3" fill="#FFFFFF" class="fade" style="animation-delay:1050ms"><title>2026-09-05: 0</title></circle><circle cx="325.0" cy="250.0" r="3" fill="#FFFFFF" class="fade" style="animation-delay:1075ms"><title>2026-09-06: 0</title></circle><circle cx="350.0" cy="250.0" r="3" fill="#FFFFFF" class="fade" style="animation-delay:1100ms"><title>2026-09-07: 0</title></circle><circle cx="375.0" cy="250.0" r="3" fill="#FFFFFF" class="fade" style="animation-delay:1125ms"><title>2026-09-08: 0</title></circle><circle cx="400.0" cy="250.0" r="3" fill="#FFFFFF" class="fade" style="animation-delay:1150ms"><title>2026-09-09: 0</title></circle><circle cx="425.0" cy="250.0" r="3" fill="#FFFFFF" class="fade" style="animation-delay:1175ms"><title>2026-09-10: 0</title></circle><circle cx="450.0" cy="250.0" r="3" fill="#FFFFFF" class="fade" style="animation-delay:1200ms"><title>2026-09-11: 0</title></circle><circle cx="475.0" cy="250.0" r="3" fill="#FFFFFF" class="fade" style="animation-delay:1225ms"><title>2026-09-12: 0</title></circle><circle cx="500.0" cy="60.0" r="3" fill="#FFFFFF" class="fade" style="animation-delay:1250ms"><title>2026-09-13: 3</title></circle><circle cx="525.0" cy="123.3" r="3" fill="#FFFFFF" class="fade" style="animation-delay:1275ms"><title>2026-09-14: 2</title></circle><circle cx="550.0" cy="250.0" r="3" fill="#FFFFFF" class="fade" style="animation-delay:1300ms"><title>2026-09-15: 0</title></circle><circle cx="575.0" cy="250.0" r="3" fill="#FFFFFF" class="fade" style="animation-delay:1325ms"><title>2026-09-16: 0</title></circle><circle cx="600.0" cy="250.0" r="3" fill="#FFFFFF" class="fade" style="animation-delay:1350ms"><title>2026-09-17: 0</title></circle><circle cx="625.0" cy="250.0" r="3" fill="#FFFFFF" class="fade" style="animation-delay:1375ms"><title>2026-09-18: 0</title></circle><circle cx="650.0" cy="250.0" r="3" fill="#FFFFFF" class="fade" style="animation-delay:1400ms"><title>2026-09-19: 0</title></circle><circle cx="675.0" cy="250.0" r="3" fill="#FFFFFF" class="fade" style="animation-delay:1425ms"><title>2026-09-20: 0</title></circle><circle cx="700.0" cy="250.0" r="3" fill="#FFFFFF" class="fade" style="animation-delay:1450ms"><title>2026-09-21: 0</title></circle><circle cx="725.0" cy="250.0" r="3" fill="#FFFFFF" class="fade" style="animation-delay:1475ms"><title>2026-09-22: 0</title></circle><circle cx="750.0" cy="250.0" r="3" fill="#FFFFFF" class="fade" style="animation-delay:1500ms"><title>2026-09-23: 0</title></circle><circle cx="775.0" cy="186.7" r="3" fill="#FFFFFF" class="fade" style="animation-delay:1525ms"><title>2026-09-24: 1</title></circle><circle cx="800.0" cy="186.7" r="3" fill="#FFFFFF" class="fade" style="animation-delay:1550ms"><title>2026-09-25: 1</title></circle>
<text x="50" y="270" text-anchor="middle" class="m">08-26</text><text x="175" y="270" text-anchor="middle" class="m">08-31</text><text x="300" y="270" text-anchor="middle" class="m">09-05</text><text x="425" y="270" text-anchor="middle" class="m">09-10</text><text x="550" y="270" text-anchor="middle" class="m">09-15</text><text x="675" y="270" text-anchor="middle" class="m">09-20</text><text x="800" y="270" text-anchor="middle" class="m">09-25</text>
</svg>